<?xml version="1.0" encoding="utf-8"?>
<!-- Generator: Adobe Illustrator 18.1.1, SVG Export Plug-In . SVG Version: 6.00 Build 0)  -->
<svg version="1.1" id="Camada_1" xmlns="http://www.w3.org/2000/svg" xmlns:xlink="http://www.w3.org/1999/xlink" x="0px" y="0px"
	 viewBox="0 0 26 26" enable-background="new 0 0 26 26" xml:space="preserve">
<path fill="#FFFFFF" d="M3.859,3.738C3.859,3.333,4.191,3,4.598,3h16.805c0.406,0,0.739,0.333,0.739,0.738v2.97
	c0,0.406-0.223,0.739-0.494,0.739s-0.628-0.305-0.792-0.677l-0.64-1.453c-0.163-0.372-0.63-0.675-1.036-0.675h-3.712
	c-0.406,0-0.739,0.332-0.739,0.738v14.904c0,0.406,0.319,0.834,0.708,0.95l1.55,0.465c0.389,0.117,0.708,0.458,0.708,0.756
	c0,0.299-0.333,0.544-0.739,0.544h-7.91c-0.407,0-0.739-0.245-0.739-0.544c0-0.298,0.318-0.639,0.708-0.756l1.549-0.465
	c0.39-0.116,0.708-0.544,0.708-0.95V5.381c0-0.407-0.332-0.739-0.739-0.739H6.821c-0.406,0-0.872,0.304-1.036,0.676l-0.64,1.453
	c-0.163,0.372-0.52,0.677-0.792,0.677c-0.272,0-0.495-0.333-0.495-0.739L3.859,3.738L3.859,3.738z"/>
</svg>
