<?xml version="1.0" encoding="utf-8"?>
<!-- Generator: Adobe Illustrator 18.1.1, SVG Export Plug-In . SVG Version: 6.00 Build 0)  -->
<svg version="1.1" id="Camada_1" xmlns="http://www.w3.org/2000/svg" xmlns:xlink="http://www.w3.org/1999/xlink" x="0px" y="0px"
	 viewBox="0 0 26 26" enable-background="new 0 0 26 26" xml:space="preserve">
<path fill="#FFFFFF" d="M19.385,10.077c-0.035-0.42-0.181-0.443,0.48-1.451l2.212-3.112c0.029-0.046,0.264-0.364,0.349-0.879
	c0.106-0.509-0.08-1.301-0.798-1.781c-1.036-0.739-1.034-0.741-2.073-1.473c-0.689-0.519-1.498-0.439-1.943-0.169
	c-0.463,0.247-0.685,0.574-0.713,0.62L14.68,4.941c-0.733,0.951-0.801,0.824-1.211,0.927C12.993,5.91,12.17,6.192,11.43,7.313
	C9.955,9.387,9.955,9.387,9.955,9.387L9.587,9.905l1.034,0.739l-4.793,6.741c-0.511,0.736-0.409,1.359-0.511,1.933
	c-0.098,0.608-0.336,1.448-1.402,2.953L3.547,22.79L6.659,25l0.367-0.516c1.074-1.5,1.784-1.999,2.328-2.305
	c0.51-0.287,1.135-0.4,1.661-1.117l4.793-6.739l1.037,0.737l0.372-0.521c0,0,0,0,1.472-2.075
	C19.503,11.408,19.5,10.545,19.385,10.077z M9.975,20.337c-0.212,0.314-0.475,0.352-1.219,0.734
	c-0.634,0.331-1.424,0.915-2.39,2.163l-1.054-0.747c0.862-1.321,1.153-2.262,1.259-2.968c0.118-0.829,0.067-1.091,0.295-1.395
	l4.793-6.739l3.111,2.213L9.975,20.337z"/>
</svg>
