<?xml version="1.0" encoding="utf-8"?>
<!-- Generator: Adobe Illustrator 18.1.1, SVG Export Plug-In . SVG Version: 6.00 Build 0)  -->
<svg version="1.1" id="Camada_1" xmlns="http://www.w3.org/2000/svg" xmlns:xlink="http://www.w3.org/1999/xlink" x="0px" y="0px"
	 viewBox="0 0 26 26" enable-background="new 0 0 26 26" xml:space="preserve">
<g>
	<path fill="#FFFFFF" d="M25.462,20.916c0,1.146-0.937,2.084-2.083,2.084H2.545c-1.146,0-2.083-0.937-2.083-2.084V5.084
		C0.462,3.937,1.399,3,2.545,3h20.834c1.145,0,2.083,0.937,2.083,2.084V20.916z M2.545,4.667c-0.221,0-0.417,0.195-0.417,0.417
		v15.832c0,0.222,0.195,0.417,0.417,0.417h20.834c0.221,0,0.416-0.195,0.416-0.417V5.084c0-0.222-0.195-0.417-0.416-0.417H2.545z
		 M6.295,11.333c-1.38,0-2.5-1.12-2.5-2.5s1.12-2.5,2.5-2.5s2.5,1.12,2.5,2.5S7.676,11.333,6.295,11.333z M22.129,19.667H3.795v-2.5
		L7.962,13l2.083,2.084l6.667-6.667l5.416,5.416V19.667z"/>
</g>
</svg>
