<?xml version="1.0" encoding="utf-8"?>
<!-- Generator: Adobe Illustrator 18.1.1, SVG Export Plug-In . SVG Version: 6.00 Build 0)  -->
<svg version="1.1" id="Camada_1" xmlns="http://www.w3.org/2000/svg" xmlns:xlink="http://www.w3.org/1999/xlink" x="0px" y="0px" viewBox="0 0 418 78" enable-background="new 0 0 418 78" xml:space="preserve">
<rect x="2.781" y="38.757" fill="none" width="108.749" height="36.993"></rect>
<text transform="matrix(1 0 0 1 8.0515 48.8223)"><tspan x="17" y="0" fill="#FFFFFF" font-family="'Open Sans'" font-size="14">you type a </tspan><tspan x="35" y="20" fill="#FFFFFF" font-family="'Open Sans'" font-size="14">word</tspan></text>
<rect x="153.834" y="38.757" fill="none" width="108.749" height="36.993"></rect>
<text transform="matrix(1 0 0 1 161.5968 48.8223)"><tspan x="5" y="0" fill="#FFFFFF" font-family="'Open Sans'" font-size="14">flickr searches  </tspan><tspan x="15" y="20" fill="#FFFFFF" font-family="'Open Sans'" font-size="14">the images</tspan></text>
<rect x="305.25" y="38.757" fill="none" width="111.309" height="36.993"></rect>
<text transform="matrix(1 0 0 1 306.5288 48.8223)"><tspan x="10" y="0" fill="#FFFFFF" font-family="'Open Sans'" font-size="14">we generate a </tspan><tspan x="17" y="20" fill="#FFFFFF" font-family="'Open Sans'" font-size="14">color palette</tspan></text>
<text transform="matrix(1 0 0 1 278.4753 16.3247)" fill="#FFFFFF" font-family="'OpenSans-Bold'" font-size="15.8203">=</text>
<text transform="matrix(1 0 0 1 127.8552 16.3247)" fill="#FFFFFF" font-family="'OpenSans-Bold'" font-size="15.8203">+</text>
<g>
  <path fill="#FFFFFF" d="M218.097,18.125c0,0.907-0.742,1.648-1.648,1.648h-16.48c-0.906,0-1.648-0.741-1.648-1.648V5.602
    c0-0.907,0.742-1.648,1.648-1.648h16.48c0.906,0,1.648,0.741,1.648,1.648V18.125z M199.969,5.272c-0.175,0-0.33,0.154-0.33,0.33
    v12.524c0,0.176,0.154,0.33,0.33,0.33h16.48c0.175,0,0.329-0.154,0.329-0.33V5.602c0-0.176-0.154-0.33-0.329-0.33H199.969z
     M202.935,10.545c-1.092,0-1.978-0.886-1.978-1.978s0.886-1.978,1.978-1.978c1.092,0,1.978,0.886,1.978,1.978
    S204.027,10.545,202.935,10.545z M215.46,17.137h-14.502v-1.978l3.296-3.296l1.648,1.648l5.274-5.273l4.284,4.284V17.137z"></path>
</g>
<path fill="#FFFFFF" d="M365.955,9.552c-0.027-0.332-0.143-0.351,0.38-1.148l1.749-2.461c0.023-0.036,0.209-0.288,0.276-0.696
  c0.084-0.403-0.063-1.029-0.631-1.409c-0.82-0.585-0.818-0.586-1.64-1.165c-0.545-0.41-1.185-0.347-1.537-0.134
  c-0.366,0.195-0.542,0.454-0.564,0.491l-1.754,2.458c-0.58,0.752-0.633,0.652-0.958,0.733c-0.376,0.034-1.027,0.256-1.613,1.143
  c-1.167,1.641-1.167,1.641-1.167,1.641l-0.291,0.41L359.023,10l-3.792,5.333c-0.404,0.582-0.323,1.075-0.405,1.529
  c-0.078,0.481-0.265,1.146-1.109,2.335l-0.291,0.41l2.461,1.748l0.29-0.408c0.849-1.187,1.411-1.581,1.842-1.823
  c0.403-0.227,0.897-0.316,1.314-0.884l3.791-5.331l0.82,0.583l0.294-0.412c0,0,0,0,1.165-1.641
  C366.049,10.604,366.046,9.921,365.955,9.552z M358.512,17.667c-0.168,0.249-0.375,0.278-0.964,0.581
  c-0.502,0.262-1.126,0.723-1.89,1.711l-0.834-0.591c0.682-1.045,0.912-1.789,0.996-2.348c0.093-0.656,0.053-0.863,0.233-1.103
  l3.791-5.331l2.461,1.75L358.512,17.667z"></path>
<path fill="#FFFFFF" d="M49.925,4.537c0-0.321,0.263-0.584,0.584-0.584h13.293c0.321,0,0.584,0.263,0.584,0.584v2.349
  c0,0.321-0.176,0.585-0.391,0.585c-0.215,0-0.497-0.241-0.626-0.535l-0.506-1.149c-0.129-0.294-0.498-0.534-0.82-0.534h-2.936
  c-0.321,0-0.584,0.263-0.584,0.584v11.79c0,0.321,0.252,0.66,0.56,0.752l1.226,0.368c0.308,0.093,0.56,0.362,0.56,0.598
  c0,0.236-0.263,0.43-0.584,0.43h-6.257c-0.322,0-0.584-0.194-0.584-0.43c0-0.236,0.251-0.505,0.56-0.598l1.226-0.368
  c0.308-0.092,0.56-0.43,0.56-0.752V5.837c0-0.322-0.263-0.585-0.584-0.585h-2.936c-0.321,0-0.69,0.24-0.82,0.535l-0.506,1.149
  c-0.129,0.294-0.411,0.535-0.626,0.535c-0.215,0-0.391-0.263-0.391-0.585L49.925,4.537L49.925,4.537z"></path>
</svg>
